<svg xmlns="http://www.w3.org/2000/svg" xmlns:xlink="http://www.w3.org/1999/xlink" viewBox="0 0 224 66.636">
  <defs>
    <style>
      .cls-1 {
        fill: none;
      }

      .cls-2 {
        clip-path: url(#clip-path);
      }

      .cls-3 {
        fill: #ffd423;
      }

      .cls-4 {
        fill: #ff7427;
      }

      .cls-5 {
        fill: #ff7c43;
      }

      .cls-6 {
        fill: #ffb143;
      }

      .cls-7 {
        fill: #912f00;
      }

      .cls-8 {
        fill: #ee2d3b;
      }

      .cls-9 {
        fill: #ee6339;
      }

      .cls-10 {
        fill: #ff4747;
      }

      .cls-11 {
        fill: #fff;
      }
    </style>
    <clipPath id="clip-path">
      <path id="Path_239" data-name="Path 239" class="cls-1" d="M0-84.88H224v-66.636H0Z" transform="translate(0 151.516)"/>
    </clipPath>
  </defs>
  <g id="Group_3" data-name="Group 3" transform="translate(0 151.516)">
    <g id="Group_17" data-name="Group 17" class="cls-2" transform="translate(0 -151.516)">
      <path id="Path_110" data-name="Path 110" class="cls-3" d="M21.226-149.965c.116.058.232.119.345.185-.112-.066-.228-.126-.345-.185" transform="translate(-11.891 150.647)"/>
      <path id="Path_111" data-name="Path 111" class="cls-3" d="M19.927-150.535c.113.043.227.089.338.139-.111-.05-.224-.095-.338-.139" transform="translate(-11.163 150.966)"/>
      <path id="Path_112" data-name="Path 112" class="cls-3" d="M17.653-12.014l-.014,0,.014,0" transform="translate(-9.882 73.366)"/>
      <path id="Path_113" data-name="Path 113" class="cls-3" d="M2.277-145.052c.066-.105.135-.207.205-.306-.071.1-.14.2-.205.306" transform="translate(-1.276 148.066)"/>
      <path id="Path_114" data-name="Path 114" class="cls-3" d="M18.609-150.969c.1.029.207.058.31.092-.1-.034-.205-.063-.31-.092" transform="translate(-10.425 151.209)"/>
      <path id="Path_115" data-name="Path 115" class="cls-3" d="M1.119-20.815c-.05-.112-.1-.226-.139-.34.044.115.089.229.139.34" transform="translate(-0.549 78.487)"/>
      <path id="Path_116" data-name="Path 116" class="cls-3" d="M10.057-12.487q-.294-.081-.581-.189c.19.072.383.135.581.189" transform="translate(-5.309 73.737)"/>
      <path id="Path_117" data-name="Path 117" class="cls-3" d="M.978-142.5c.044-.114.089-.229.14-.341-.05.112-.1.226-.14.341" transform="translate(-0.548 146.657)"/>
      <path id="Path_118" data-name="Path 118" class="cls-3" d="M11.387-151.215c.11-.026.221-.047.332-.066-.112.02-.222.041-.332.066" transform="translate(-6.379 151.384)"/>
      <path id="Path_119" data-name="Path 119" class="cls-3" d="M17.254-151.277c.092.017.185.033.277.053-.092-.02-.185-.037-.277-.053" transform="translate(-9.666 151.382)"/>
      <path id="Path_120" data-name="Path 120" class="cls-3" d="M16.169-11.8l-.1.01.1-.01" transform="translate(-9.003 73.247)"/>
      <path id="Path_121" data-name="Path 121" class="cls-3" d="M12.851-151.427c.1-.012.195-.022.293-.03-.1.008-.2.018-.293.03" transform="translate(-7.199 151.483)"/>
      <path id="Path_122" data-name="Path 122" class="cls-3" d="M.638-22.163c-.035-.1-.064-.209-.093-.313.029.105.059.21.093.313" transform="translate(-0.305 79.227)"/>
      <path id="Path_123" data-name="Path 123" class="cls-3" d="M10-150.873c.114-.038.23-.072.346-.1-.116.033-.233.066-.346.1" transform="translate(-5.603 151.214)"/>
      <path id="Path_124" data-name="Path 124" class="cls-3" d="M13.686-11.771a6.5,6.5,0,0,1-.706-.045,6.585,6.585,0,0,0,.706.045" transform="translate(-7.272 73.255)"/>
      <path id="Path_125" data-name="Path 125" class="cls-3" d="M15.847-151.457c.084.007.168.013.252.023-.084-.01-.167-.017-.252-.023" transform="translate(-8.878 151.483)"/>
      <path id="Path_126" data-name="Path 126" class="cls-3" d="M11.806-12.023c-.189-.028-.376-.062-.562-.108.184.045.372.08.562.108" transform="translate(-6.299 73.432)"/>
      <path id="Path_127" data-name="Path 127" class="cls-3" d="M1.55-143.81c.058-.116.119-.232.185-.346-.065.113-.126.229-.185.346" transform="translate(-0.868 147.393)"/>
      <path id="Path_128" data-name="Path 128" class="cls-3" d="M14.506-151.516c-.047,0-.094.006-.141.008.085,0,.17,0,.255,0-.039,0-.076-.006-.115-.006" transform="translate(-8.048 151.516)"/>
      <path id="Path_129" data-name="Path 129" class="cls-3" d="M1.734-19.509c-.065-.113-.126-.23-.185-.346.059.117.12.233.185.346" transform="translate(-0.868 77.759)"/>
      <path id="Path_130" data-name="Path 130" class="cls-3" d="M3.152-146.207c.064-.082.131-.161.2-.239q-.1.117-.2.239" transform="translate(-1.766 148.675)"/>
      <path id="Path_131" data-name="Path 131" class="cls-3" d="M3.784-16.6a6.414,6.414,0,0,1-.495-.541,6.472,6.472,0,0,0,.495.541" transform="translate(-1.843 76.237)"/>
      <path id="Path_132" data-name="Path 132" class="cls-3" d="M.058-138.312c.007-.087.013-.174.024-.26-.01.086-.017.173-.024.26" transform="translate(-0.032 144.265)"/>
      <path id="Path_133" data-name="Path 133" class="cls-3" d="M8.293-13.2a6.363,6.363,0,0,1-.681-.322,6.492,6.492,0,0,0,.681.322" transform="translate(-4.264 74.213)"/>
      <path id="Path_134" data-name="Path 134" class="cls-3" d="M.544-141.148c.029-.105.059-.21.093-.315-.034.1-.064.209-.093.315" transform="translate(-0.305 145.884)"/>
      <path id="Path_135" data-name="Path 135" class="cls-3" d="M3.133-93.95l9.784-5.876v-25.743l-9.784-5.876A6.453,6.453,0,0,1,.006-137.1c0,.04-.005.079-.005.119v48.568c0,.04,0,.078.005.117A6.452,6.452,0,0,1,3.133-93.95" transform="translate(0 143.44)"/>
      <path id="Path_136" data-name="Path 136" class="cls-3" d="M6.287-149.064c.077-.053.156-.1.235-.154-.08.05-.159.1-.235.154" transform="translate(-3.522 150.229)"/>
      <path id="Path_137" data-name="Path 137" class="cls-3" d="M2.6-18.108q-.194-.252-.366-.528a6.277,6.277,0,0,0,.366.528" transform="translate(-1.251 77.076)"/>
      <path id="Path_138" data-name="Path 138" class="cls-3" d="M7.459-149.8c.093-.053.188-.1.284-.15-.1.048-.191.1-.284.15" transform="translate(-4.178 150.636)"/>
      <path id="Path_139" data-name="Path 139" class="cls-3" d="M.237-139.751c.017-.094.033-.189.055-.284-.021.094-.038.189-.055.284" transform="translate(-0.133 145.085)"/>
      <path id="Path_140" data-name="Path 140" class="cls-3" d="M20.342-12.889l-.09.036.09-.036" transform="translate(-11.345 73.856)"/>
      <path id="Path_141" data-name="Path 141" class="cls-3" d="M8.694-150.4c.108-.048.218-.091.328-.134-.111.043-.22.086-.328.134" transform="translate(-4.87 150.966)"/>
      <path id="Path_142" data-name="Path 142" class="cls-3" d="M6.707-14.1c-.172-.1-.339-.207-.5-.322.163.115.33.222.5.322" transform="translate(-3.476 74.713)"/>
      <path id="Path_143" data-name="Path 143" class="cls-3" d="M.29-23.551c-.021-.094-.037-.188-.054-.283.017.1.034.189.054.283" transform="translate(-0.132 79.988)"/>
      <path id="Path_144" data-name="Path 144" class="cls-3" d="M4.127-147.261c.062-.064.125-.126.189-.186-.064.061-.128.123-.189.186" transform="translate(-2.312 149.237)"/>
      <path id="Path_145" data-name="Path 145" class="cls-3" d="M21.693-13.622c-.059.033-.117.066-.176.1.06-.031.118-.064.176-.1" transform="translate(-12.054 74.267)"/>
      <path id="Path_146" data-name="Path 146" class="cls-3" d="M19.028-12.429l-.148.046.148-.046" transform="translate(-10.576 73.599)"/>
      <path id="Path_147" data-name="Path 147" class="cls-3" d="M5.222-15.2c-.134-.1-.264-.213-.39-.328.126.115.255.224.39.328" transform="translate(-2.707 75.335)"/>
      <path id="Path_148" data-name="Path 148" class="cls-3" d="M.082-24.982c-.011-.086-.017-.172-.024-.258.007.086.014.172.024.258" transform="translate(-0.032 80.775)"/>
      <path id="Path_149" data-name="Path 149" class="cls-3" d="M5.175-148.214c.065-.056.133-.109.2-.161-.067.052-.135.105-.2.161" transform="translate(-2.899 149.756)"/>
      <path id="Path_150" data-name="Path 150" class="cls-4" d="M16.885-12.006c-.194.039-.392.068-.592.09.2-.021.4-.05.592-.09" transform="translate(-9.127 73.361)"/>
      <path id="Path_151" data-name="Path 151" class="cls-4" d="M18.2-12.325c-.175.052-.351.1-.531.137.178-.037.355-.084.531-.137" transform="translate(-9.899 73.54)"/>
      <path id="Path_152" data-name="Path 152" class="cls-4" d="M12.723-11.855c-.068-.008-.135-.021-.2-.031.067.01.134.023.2.031" transform="translate(-7.014 73.294)"/>
      <path id="Path_153" data-name="Path 153" class="cls-4" d="M119.144-89.281c-.017-.03-.038-.055-.056-.084.02.032.043.062.062.094l-.005-.01" transform="translate(-66.714 116.699)"/>
      <path id="Path_154" data-name="Path 154" class="cls-4" d="M117.007-91.982c.073.073.148.145.217.221-.07-.077-.144-.148-.217-.221" transform="translate(-65.548 118.164)"/>
      <path id="Path_155" data-name="Path 155" class="cls-4" d="M118.114-90.74c.043.055.09.107.132.163-.042-.056-.088-.108-.132-.163" transform="translate(-66.168 117.469)"/>
      <path id="Path_156" data-name="Path 156" class="cls-4" d="M119.849-87.989c.011.023.024.043.035.066-.011-.022-.024-.044-.035-.066" transform="translate(-67.14 115.927)"/>
      <path id="Path_157" data-name="Path 157" class="cls-4" d="M114.063-94.278l.031.019Z" transform="translate(-63.899 119.451)"/>
      <path id="Path_158" data-name="Path 158" class="cls-4" d="M120.272-87a6.476,6.476,0,0,1,.37,1.333,6.388,6.388,0,0,0-.37-1.333" transform="translate(-67.377 115.373)"/>
      <path id="Path_159" data-name="Path 159" class="cls-4" d="M115.766-93.09c.109.087.217.172.319.264-.1-.093-.211-.178-.319-.264" transform="translate(-64.853 118.786)"/>
      <path id="Path_160" data-name="Path 160" class="cls-4" d="M114.387-94.069c.15.094.3.19.438.294-.142-.106-.289-.2-.438-.294" transform="translate(-64.08 119.333)"/>
      <path id="Path_161" data-name="Path 161" class="cls-4" d="M3.164-17.306c-.034-.042-.064-.087-.1-.131.033.044.064.089.1.131" transform="translate(-1.718 76.404)"/>
      <path id="Path_162" data-name="Path 162" class="cls-4" d="M10.993-12.2c-.065-.016-.132-.033-.2-.05.065.018.131.034.2.05" transform="translate(-6.048 73.496)"/>
      <path id="Path_163" data-name="Path 163" class="cls-4" d="M5.933-14.622c-.072-.052-.144-.106-.214-.16.071.055.141.109.214.16" transform="translate(-3.204 74.917)"/>
      <path id="Path_164" data-name="Path 164" class="cls-4" d="M7.464-13.615c-.039-.022-.077-.048-.116-.07.039.022.077.049.116.07" transform="translate(-4.117 74.302)"/>
      <path id="Path_165" data-name="Path 165" class="cls-4" d="M9.3-12.742c-.046-.017-.093-.033-.139-.051.046.018.093.034.139.051" transform="translate(-5.132 73.802)"/>
      <path id="Path_166" data-name="Path 166" class="cls-4" d="M14.585-11.751c.017,0,.033,0,.05,0,.2,0,.4-.013.6-.032-.2.019-.4.031-.61.031l-.044,0" transform="translate(-8.171 73.235)"/>
      <path id="Path_167" data-name="Path 167" class="cls-4" d="M121.151-83.773c.021.144.033.29.044.435-.011-.145-.023-.29-.044-.435" transform="translate(-67.87 113.566)"/>
      <path id="Path_168" data-name="Path 168" class="cls-5" d="M55.847-76.076l-9.219-5.537L25.2-68.742v11.413a6.453,6.453,0,0,1-3.277,5.618c.048-.027.1-.052.144-.081L62.5-76.076c.122-.074.236-.156.351-.236a6.481,6.481,0,0,1-3.683,1.159,6.426,6.426,0,0,1-3.319-.923" transform="translate(-12.279 112.356)"/>
      <path id="Path_169" data-name="Path 169" class="cls-4" d="M121.294-82.338c.005.11,0,.22,0,.329,0-.11,0-.219,0-.329" transform="translate(-67.95 112.762)"/>
      <path id="Path_170" data-name="Path 170" class="cls-4" d="M4.6-15.741c-.062-.056-.125-.109-.184-.167.06.058.122.111.184.167" transform="translate(-2.472 75.547)"/>
      <path id="Path_171" data-name="Path 171" class="cls-4" d="M121.123-79.46c-.007.042-.017.084-.024.125.007-.042.017-.083.024-.125" transform="translate(-67.84 111.15)"/>
      <path id="Path_172" data-name="Path 172" class="cls-4" d="M120.863-78.059c0,.011-.007.022-.01.033,0-.011.007-.022.01-.033" transform="translate(-67.703 110.365)"/>
      <path id="Path_173" data-name="Path 173" class="cls-4" d="M120.133-76.527c-.062.169-.129.337-.207.5.077-.164.144-.333.207-.5" transform="translate(-67.183 109.507)"/>
      <path id="Path_174" data-name="Path 174" class="cls-4" d="M121.267-80.892c0,.074-.014.148-.021.222.007-.074.017-.148.021-.222" transform="translate(-67.923 111.952)"/>
      <path id="Path_175" data-name="Path 175" class="cls-4" d="M117.406-72.244c-.128.155-.263.3-.4.442.142-.142.277-.289.4-.442" transform="translate(-65.545 107.107)"/>
      <path id="Path_176" data-name="Path 176" class="cls-4" d="M.033-25.737c-.01-.13-.017-.259-.02-.391,0,.131.009.26.02.391" transform="translate(-0.007 81.273)"/>
      <path id="Path_177" data-name="Path 177" class="cls-4" d="M118.633-73.99a6.454,6.454,0,0,1-.423.609,6.338,6.338,0,0,0,.423-.609" transform="translate(-66.222 108.085)"/>
      <path id="Path_178" data-name="Path 178" class="cls-4" d="M119.514-75.3q-.13.274-.287.539.156-.263.287-.539" transform="translate(-66.791 108.818)"/>
      <path id="Path_179" data-name="Path 179" class="cls-4" d="M2.025-18.966c.018.031.042.057.061.087-.04-.063-.078-.126-.116-.191.02.034.036.069.056.1" transform="translate(-1.103 77.319)"/>
      <path id="Path_180" data-name="Path 180" class="cls-4" d="M115.963-70.919a6.52,6.52,0,0,1-.568.477,6.582,6.582,0,0,0,.568-.477" transform="translate(-64.645 106.365)"/>
      <path id="Path_181" data-name="Path 181" class="cls-4" d="M1.408-20.151c-.038-.077-.077-.154-.112-.232.035.078.074.155.112.232" transform="translate(-0.726 78.054)"/>
      <path id="Path_182" data-name="Path 182" class="cls-4" d="M19.671-12.809c-.149.062-.3.116-.455.167.153-.05.305-.105.455-.167" transform="translate(-10.765 73.811)"/>
      <path id="Path_183" data-name="Path 183" class="cls-4" d="M20.923-13.4c-.153.081-.308.157-.467.225.157-.068.313-.144.467-.225" transform="translate(-11.46 74.143)"/>
      <path id="Path_184" data-name="Path 184" class="cls-4" d="M.167-24.293c-.021-.119-.04-.239-.055-.36.015.121.034.24.055.36" transform="translate(-0.062 80.446)"/>
      <path id="Path_185" data-name="Path 185" class="cls-4" d="M.854-21.5c-.034-.088-.068-.178-.1-.268.03.09.064.179.1.268" transform="translate(-0.424 78.828)"/>
      <path id="Path_186" data-name="Path 186" class="cls-4" d="M.441-22.877c-.029-.1-.058-.208-.081-.314.024.105.052.21.081.314" transform="translate(-0.201 79.628)"/>
      <path id="Path_187" data-name="Path 187" class="cls-6" d="M12.923-40.933V-52.346L3.139-46.47A6.448,6.448,0,0,0,.012-40.816c0,.132.01.262.02.391.007.086.014.172.024.258.015.121.034.241.055.36.017.095.033.189.054.283s.052.211.081.314S.3-39,.339-38.9s.064.179.1.268c.043.113.088.227.139.34.036.078.074.156.112.232.058.116.119.232.184.346.038.064.077.128.116.191q.173.276.367.528c.033.043.064.088.1.13a6.424,6.424,0,0,0,.495.543c.059.057.122.11.183.166q.19.172.39.329c.071.053.142.107.214.159.163.115.331.223.5.322.039.023.076.048.116.07a6.417,6.417,0,0,0,.681.322c.046.018.094.034.14.051.191.072.384.136.58.189.065.018.131.034.2.05.186.046.373.08.562.108.067.01.134.023.2.031a6.514,6.514,0,0,0,.706.045l.044,0c.206,0,.409-.012.609-.031l.1-.009c.2-.023.4-.05.593-.091l.014,0c.18-.037.357-.085.531-.137l.148-.046c.154-.05.306-.106.455-.167.03-.012.061-.023.09-.035.16-.068.315-.144.467-.225.059-.031.118-.064.176-.1a6.454,6.454,0,0,0,3.278-5.618" transform="translate(-0.006 95.96)"/>
      <path id="Path_188" data-name="Path 188" class="cls-7" d="M17.884-151.156c.108.024.213.053.319.082-.106-.03-.212-.058-.319-.082" transform="translate(-10.019 151.314)"/>
      <path id="Path_189" data-name="Path 189" class="cls-7" d="M.361-140.434c.023-.106.052-.21.081-.313-.029.1-.058.208-.081.313" transform="translate(-0.202 145.483)"/>
      <path id="Path_190" data-name="Path 190" class="cls-7" d="M120.974-79.176c-.028.164-.058.329-.1.491.04-.163.07-.327.1-.491" transform="translate(-67.715 110.99)"/>
      <path id="Path_191" data-name="Path 191" class="cls-7" d="M6.821-149.435c.092-.059.185-.116.281-.17-.1.054-.189.112-.281.17" transform="translate(-3.821 150.446)"/>
      <path id="Path_192" data-name="Path 192" class="cls-7" d="M121.115-83.966c0,.028.012.057.016.085,0-.029-.011-.057-.016-.085" transform="translate(-67.849 113.674)"/>
      <path id="Path_193" data-name="Path 193" class="cls-7" d="M121.194-80.387c-.011.136-.021.273-.041.408.02-.135.03-.272.041-.408" transform="translate(-67.871 111.669)"/>
      <path id="Path_194" data-name="Path 194" class="cls-7" d="M16.421-151.4c.123.014.245.035.366.056-.122-.021-.244-.042-.366-.056" transform="translate(-9.199 151.453)"/>
      <path id="Path_195" data-name="Path 195" class="cls-7" d="M120.6-77.984a6.687,6.687,0,0,1-.2.641,6.448,6.448,0,0,0,.2-.641" transform="translate(-67.446 110.323)"/>
      <path id="Path_196" data-name="Path 196" class="cls-7" d="M.757-141.8c.03-.09.064-.178.1-.266-.034.089-.067.177-.1.266" transform="translate(-0.424 146.223)"/>
      <path id="Path_197" data-name="Path 197" class="cls-7" d="M115.383-93.4c.058.043.112.091.169.136-.057-.045-.11-.093-.169-.136" transform="translate(-64.638 118.959)"/>
      <path id="Path_198" data-name="Path 198" class="cls-7" d="M.013-137.594c0-.13.01-.259.02-.387-.01.129-.017.258-.02.387" transform="translate(-0.007 143.933)"/>
      <path id="Path_199" data-name="Path 199" class="cls-7" d="M19.314-150.759c.091.03.18.064.27.1-.09-.034-.179-.068-.27-.1" transform="translate(-10.82 151.092)"/>
      <path id="Path_200" data-name="Path 200" class="cls-7" d="M8.106-150.1c.085-.043.171-.086.259-.125-.088.039-.173.082-.259.125" transform="translate(-4.541 150.795)"/>
      <path id="Path_201" data-name="Path 201" class="cls-7" d="M114.158-94.22l-.024-.014c.038.023.074.05.111.073-.03-.019-.057-.041-.087-.059" transform="translate(-63.939 119.426)"/>
      <path id="Path_202" data-name="Path 202" class="cls-7" d="M119.928-87.838c.057.122.1.246.151.369-.049-.124-.1-.249-.151-.369" transform="translate(-67.184 115.843)"/>
      <path id="Path_203" data-name="Path 203" class="cls-8" d="M25.247-143.953v11.413L46.68-119.669l9.219-5.537a6.461,6.461,0,0,1,6.6-.033L22.114-149.49c-.034-.02-.07-.036-.1-.055a6.451,6.451,0,0,1,3.237,5.592" transform="translate(-12.33 150.412)"/>
      <path id="Path_204" data-name="Path 204" class="cls-7" d="M.112-139.03c.014-.121.034-.24.055-.359-.021.119-.041.239-.055.359" transform="translate(-0.063 144.722)"/>
      <path id="Path_205" data-name="Path 205" class="cls-7" d="M117.5-91.48c.094.1.182.214.27.325-.087-.11-.175-.22-.27-.325" transform="translate(-65.825 117.883)"/>
      <path id="Path_206" data-name="Path 206" class="cls-7" d="M121.252-82.784c.005.065.015.131.018.2,0-.065-.012-.131-.018-.2" transform="translate(-67.926 113.012)"/>
      <path id="Path_207" data-name="Path 207" class="cls-7" d="M20.7-150.219c.078.036.156.074.233.112-.078-.039-.155-.077-.233-.112" transform="translate(-11.595 150.789)"/>
      <path id="Path_208" data-name="Path 208" class="cls-7" d="M2.744-145.663c.058-.082.118-.161.179-.24-.062.078-.121.158-.179.24" transform="translate(-1.537 148.371)"/>
      <path id="Path_209" data-name="Path 209" class="cls-7" d="M10.789-151.062c.087-.024.175-.047.263-.067-.088.02-.176.043-.263.067" transform="translate(-6.044 151.299)"/>
      <path id="Path_210" data-name="Path 210" class="cls-7" d="M118.047-72.6c-.042.054-.085.106-.128.159.043-.052.087-.1.128-.159" transform="translate(-66.059 107.309)"/>
      <path id="Path_211" data-name="Path 211" class="cls-7" d="M121.3-81.59c0,.1,0,.2,0,.307,0-.1,0-.2,0-.307" transform="translate(-67.95 112.343)"/>
      <path id="Path_212" data-name="Path 212" class="cls-7" d="M118.413-90.369c.1.141.2.29.3.442-.094-.151-.191-.3-.3-.442" transform="translate(-66.336 117.261)"/>
      <path id="Path_213" data-name="Path 213" class="cls-7" d="M9.44-150.649c.082-.031.163-.062.247-.09-.084.028-.164.059-.247.09" transform="translate(-5.288 151.081)"/>
      <path id="Path_214" data-name="Path 214" class="cls-7" d="M2.025-144.543c-.02.034-.036.069-.056.1.043-.075.09-.15.136-.223-.026.04-.055.078-.08.119" transform="translate(-1.103 147.676)"/>
      <path id="Path_215" data-name="Path 215" class="cls-7" d="M116.826-71.24c-.047.046-.091.1-.139.141.047-.045.092-.094.139-.141" transform="translate(-65.369 106.545)"/>
      <path id="Path_216" data-name="Path 216" class="cls-7" d="M1.3-143.138c.036-.078.074-.155.112-.232-.038.077-.076.154-.112.232" transform="translate(-0.726 146.952)"/>
      <path id="Path_217" data-name="Path 217" class="cls-7" d="M3.6-146.77c.075-.087.152-.172.232-.254-.08.083-.156.167-.232.254" transform="translate(-2.018 148.999)"/>
      <path id="Path_218" data-name="Path 218" class="cls-7" d="M12.141-151.341c.1-.018.207-.035.312-.047-.1.012-.208.029-.312.047" transform="translate(-6.802 151.444)"/>
      <path id="Path_219" data-name="Path 219" class="cls-7" d="M115.167-69.834c-.058.042-.12.08-.18.121.06-.041.122-.077.18-.121" transform="translate(-64.416 105.757)"/>
      <path id="Path_220" data-name="Path 220" class="cls-7" d="M13.516-151.48c.123-.01.248-.016.373-.018-.125,0-.249.008-.373.018" transform="translate(-7.572 151.506)"/>
      <path id="Path_221" data-name="Path 221" class="cls-7" d="M119.9-75.384l-.02.038.02-.038" transform="translate(-67.158 108.866)"/>
      <path id="Path_222" data-name="Path 222" class="cls-7" d="M5.63-148.651c.094-.074.19-.147.289-.216-.1.068-.194.141-.289.216" transform="translate(-3.154 150.032)"/>
      <path id="Path_223" data-name="Path 223" class="cls-7" d="M119.228-89.151c.1.167.189.338.273.511-.084-.174-.173-.345-.273-.511" transform="translate(-66.792 116.579)"/>
      <path id="Path_224" data-name="Path 224" class="cls-7" d="M119.192-74.063l0-.009c-.008.012-.017.024-.024.036.006-.009.013-.018.019-.027" transform="translate(-66.761 108.131)"/>
      <path id="Path_225" data-name="Path 225" class="cls-7" d="M116.491-92.489c.078.071.152.148.227.223-.075-.075-.147-.151-.227-.223" transform="translate(-65.259 118.449)"/>
      <path id="Path_226" data-name="Path 226" class="cls-7" d="M14.947-151.5c.134,0,.265.01.4.02-.132-.01-.264-.018-.4-.02" transform="translate(-8.373 151.509)"/>
      <path id="Path_227" data-name="Path 227" class="cls-7" d="M4.558-147.762q.132-.127.271-.247-.139.119-.271.247" transform="translate(-2.554 149.551)"/>
      <path id="Path_228" data-name="Path 228" class="cls-9" d="M3.139-139.514l9.784,5.876V-145.05a6.451,6.451,0,0,0-3.237-5.592c-.113-.065-.229-.126-.345-.185-.077-.038-.154-.077-.232-.112-.112-.05-.225-.1-.339-.14-.089-.034-.178-.068-.27-.1s-.206-.064-.31-.092-.211-.058-.319-.082-.185-.037-.277-.053c-.121-.021-.243-.042-.366-.056-.084-.01-.168-.017-.252-.023-.131-.011-.262-.018-.4-.02-.085,0-.17,0-.256,0-.126,0-.25.008-.373.018-.1.008-.2.017-.293.03s-.208.028-.312.047-.221.041-.332.066c-.088.02-.176.043-.263.067-.116.033-.232.066-.346.1-.084.028-.165.059-.247.09-.11.043-.22.086-.328.134-.087.039-.173.082-.258.125s-.192.1-.285.15-.188.112-.281.17-.157.1-.235.154c-.1.069-.194.142-.289.216-.068.052-.135.106-.2.161-.094.079-.183.162-.271.247-.065.061-.128.122-.19.186-.08.082-.156.167-.231.254s-.134.157-.2.239-.121.158-.179.24c-.071.1-.14.2-.205.306-.046.073-.092.147-.135.223-.066.114-.126.23-.185.346-.038.077-.077.153-.112.232-.05.112-.1.227-.14.341-.033.088-.067.176-.1.266s-.064.21-.093.315-.058.208-.081.313-.037.189-.055.284c-.021.119-.04.238-.055.359-.011.086-.018.173-.024.26-.01.128-.018.258-.02.388a6.452,6.452,0,0,0,3.128,5.656" transform="translate(-0.006 151.509)"/>
      <path id="Path_229" data-name="Path 229" class="cls-10" d="M97.079-90.355c-.012-.145-.023-.29-.044-.435,0-.028-.012-.057-.017-.085a6.427,6.427,0,0,0-.37-1.333c-.049-.123-.094-.248-.151-.369-.011-.023-.024-.043-.035-.066-.084-.173-.173-.344-.273-.512-.019-.032-.042-.062-.062-.094-.094-.152-.192-.3-.3-.442-.042-.056-.088-.109-.131-.163-.088-.11-.176-.221-.27-.325-.069-.076-.144-.148-.218-.221s-.148-.152-.226-.223c-.1-.093-.211-.178-.319-.265-.057-.045-.112-.093-.169-.136-.14-.1-.287-.2-.438-.294-.037-.023-.073-.05-.111-.073l-.031-.02a6.462,6.462,0,0,0-6.6.033L78.1-89.841,87.321-84.3a6.426,6.426,0,0,0,3.319.923,6.476,6.476,0,0,0,3.683-1.159c.059-.041.122-.078.18-.12a6.515,6.515,0,0,0,.568-.477c.048-.045.092-.094.14-.141.14-.141.274-.287.4-.442.043-.052.087-.1.128-.159a6.444,6.444,0,0,0,.423-.609l.024-.036c.106-.177.2-.356.287-.539.007-.013.014-.025.021-.039.077-.165.144-.333.206-.5.077-.211.145-.423.2-.641,0-.011.007-.022.01-.033.04-.162.07-.327.1-.491.007-.042.017-.083.024-.125.02-.135.03-.271.041-.408.007-.074.017-.148.021-.222.005-.1,0-.2,0-.306s0-.22,0-.329c0-.065-.013-.131-.018-.2" transform="translate(-43.753 120.583)"/>
      <path id="Path_230" data-name="Path 230" class="cls-11" d="M338.235-56.561h1.123a3.634,3.634,0,0,1,.47-.119,10.68,10.68,0,0,0,7.352-3.984,27.661,27.661,0,0,0,3.758-6.781q5.077-12.063,10.1-24.148c.855-2.046,1.716-4.09,2.539-6.148a2.18,2.18,0,0,0-1-2.872,2.348,2.348,0,0,0-3.5,1.4q-3.257,8.005-6.5,16.015c-.594,1.464-1.189,2.928-1.823,4.487-.123-.252-.206-.392-.264-.543q-2.268-5.855-4.532-11.712c-1.032-2.667-2.055-5.338-3.11-8a2.684,2.684,0,0,0-3.61-1.7c-1.6.611-2.152,2.094-1.431,3.841q4.528,10.977,9.056,21.955a8.054,8.054,0,0,1,1,2.584,8.109,8.109,0,0,1-.9,2.678,24.549,24.549,0,0,1-3.5,6.7,7.75,7.75,0,0,1-4.8,3.111,1.729,1.729,0,0,0-1.56,1.391c-.118.861.2,1.385,1.124,1.849" transform="translate(-188.838 123.197)"/>
      <path id="Path_231" data-name="Path 231" class="cls-11" d="M250.943-89.258a3.7,3.7,0,0,1-3.137-2.981,20.818,20.818,0,0,1-.4-4.011c-.017-5.475-.01-10.95-.011-16.425h0q0-6.714-.009-13.429c0-1.917-.436-2.548-2.2-3.19H244.3c-1.786.687-2.169,1.252-2.169,3.208q0,7.784.01,15.57h0c0,4.325-.009,8.65.008,12.976a31.568,31.568,0,0,0,.442,5.2,6.945,6.945,0,0,0,3.262,5.073,10.967,10.967,0,0,0,5.557,1.358,1.4,1.4,0,0,0,1.409-1.379c.083-1.063-.491-1.674-1.879-1.968" transform="translate(-135.644 139.067)"/>
      <path id="Path_232" data-name="Path 232" class="cls-11" d="M171.566-125.338a2.462,2.462,0,0,1,.331-.046c2.7.018,5.4-.037,8.1.082a8.522,8.522,0,0,1,6.265,2.9,8.332,8.332,0,0,1-1.332,11.9,13.459,13.459,0,0,1-6.941,2.492c-2.119.2-4.259.172-6.424.245ZM165.91-89.031c0,.187,0,.374.006.562a2.742,2.742,0,0,0,3.538,2.625,2.718,2.718,0,0,0,2.074-2.944q.009-7.451,0-14.9v-.785c.29,0,.514,0,.737,0,2.223.03,4.447.067,6.671.093a18.393,18.393,0,0,0,5.41-.731c5.831-1.7,9.479-6.212,9.733-12.057a10.727,10.727,0,0,0-6.874-10.8,18.491,18.491,0,0,0-7.12-1.3c-3.637-.02-7.275.035-10.912-.021a2.958,2.958,0,0,0-3.287,3.284c.044,12.326.021,24.652.021,36.978" transform="translate(-92.932 139.067)"/>
      <path id="Path_233" data-name="Path 233" class="cls-11" d="M293.56-85.07c-.092,1.942.185,3.83-.389,5.683-1.132,3.659-5.739,7.112-10.529,5.157a5.106,5.106,0,0,1-3.369-4.915,5.2,5.2,0,0,1,2.916-5.09,11.131,11.131,0,0,1,4.655-1.211,31.727,31.727,0,0,1,6.716.376m-4.551-3.886a37.794,37.794,0,0,0-4.474.24,16.166,16.166,0,0,0-6.9,2.3c-4.818,3.04-4.877,9.668-2.013,12.951a10.092,10.092,0,0,0,6.079,3.249,10.6,10.6,0,0,0,9-1.988,38.608,38.608,0,0,0,2.852-2.854c0,.789-.014,1.6,0,2.409a2.509,2.509,0,0,0,2.66,2.657,2.485,2.485,0,0,0,2.561-2.678c.005-5.549.033-11.1-.024-16.647a20.178,20.178,0,0,0-.5-4.191,8.6,8.6,0,0,0-6.95-6.971,16.48,16.48,0,0,0-6.8-.21,12.447,12.447,0,0,0-8.783,6.056,1.352,1.352,0,0,0,.171,1.817,1.565,1.565,0,0,0,1.939.286,4.4,4.4,0,0,0,.833-.739,10.665,10.665,0,0,1,7.352-3.623c5.6-.274,8,3.526,7.47,8.2-1.49-.1-2.979-.259-4.468-.267" transform="translate(-153.323 123.19)"/>
      <path id="Path_234" data-name="Path 234" class="cls-11" d="M438.073-70.9a2.855,2.855,0,0,0,.583-1.982q-.011-7.608,0-15.215a8.534,8.534,0,0,1,9.152-8.618c3,.181,4.748,1.692,5.273,4.662a17.666,17.666,0,0,1,.252,2.973c.024,5.445.007,10.891.015,16.338a2.5,2.5,0,0,0,2.642,2.731,2.489,2.489,0,0,0,2.594-2.708c0-5.3.052-10.6-.032-15.9a28.4,28.4,0,0,0-.638-5.491c-.649-3.018-2.285-5.356-5.388-6.293a12.088,12.088,0,0,0-9.2.753,13.767,13.767,0,0,0-4.68,4.028c0-.949.025-1.9-.005-2.846a2.528,2.528,0,0,0-3.069-2.447,2.536,2.536,0,0,0-2.162,2.768q-.008,12.69,0,25.379a3.747,3.747,0,0,0,.067.68A2.316,2.316,0,0,0,435.3-70.1a2.606,2.606,0,0,0,2.777-.8" transform="translate(-242.798 123.202)"/>
      <path id="Path_235" data-name="Path 235" class="cls-11" d="M413.459-71.787a4.776,4.776,0,0,0,.112-1.234q.012-6.2,0-12.4t0-12.4a6.353,6.353,0,0,0-.042-.932,2.359,2.359,0,0,0-1.756-2.047,2.6,2.6,0,0,0-3.461,2.612q-.021,12.743,0,25.486a3.661,3.661,0,0,0,.078.68,2.451,2.451,0,0,0,2.345,2.03,2.493,2.493,0,0,0,2.722-1.794" transform="translate(-228.736 123.18)"/>
      <path id="Path_236" data-name="Path 236" class="cls-11" d="M409.89-121.657a3.378,3.378,0,0,0,3.471-3.384,3.355,3.355,0,0,0-3.295-3.366,3.375,3.375,0,0,0-3.533,3.25,3.388,3.388,0,0,0,3.357,3.5" transform="translate(-227.742 138.57)"/>
      <path id="Path_237" data-name="Path 237" class="cls-11" d="M499.677-94.62h-.63v-1.02h.65c.34,0,.581.14.581.5,0,.381-.241.52-.6.52m1.4-.52c0-.759-.53-1.19-1.38-1.19h-1.44v3.44h.79v-1.04h.49l.71,1.04h.97l-.86-1.18a1.028,1.028,0,0,0,.72-1.07" transform="translate(-279.127 120.6)"/>
      <path id="Path_238" data-name="Path 238" class="cls-11" d="M496.82-93.927a2.944,2.944,0,0,1-2.93-2.95,2.91,2.91,0,0,1,2.93-2.909,2.919,2.919,0,0,1,2.939,2.909,2.953,2.953,0,0,1-2.939,2.95m3.53-2.95a3.5,3.5,0,0,0-3.53-3.5,3.5,3.5,0,0,0-3.52,3.5,3.5,3.5,0,0,0,3.52,3.5,3.5,3.5,0,0,0,3.53-3.5" transform="translate(-276.35 122.867)"/>
    </g>
  </g>
</svg>
